<?xml version="1.0" encoding="UTF-8" standalone="no"?>
<svg
   xmlns:dc="http://purl.org/dc/elements/1.1/"
   xmlns:cc="http://creativecommons.org/ns#"
   xmlns:rdf="http://www.w3.org/1999/02/22-rdf-syntax-ns#"
   xmlns:svg="http://www.w3.org/2000/svg"
   xmlns="http://www.w3.org/2000/svg"
   xmlns:sodipodi="http://sodipodi.sourceforge.net/DTD/sodipodi-0.dtd"
   xmlns:inkscape="http://www.inkscape.org/namespaces/inkscape"
   id="svg8839"
   viewBox="0 0 1600 1200"
   version="1.0"
   inkscape:version="1.0 (4035a4fb49, 2020-05-01)"
   sodipodi:docname="cloudy_sky.svg">
  <defs
     id="defs55" />
  <sodipodi:namedview
     inkscape:document-rotation="0"
     pagecolor="#ffffff"
     bordercolor="#666666"
     borderopacity="1"
     objecttolerance="10"
     gridtolerance="10"
     guidetolerance="10"
     inkscape:pageopacity="0"
     inkscape:pageshadow="2"
     inkscape:window-width="958"
     inkscape:window-height="993"
     id="namedview53"
     showgrid="false"
     inkscape:zoom="0.3278125"
     inkscape:cx="649.35857"
     inkscape:cy="826.52624"
     inkscape:window-x="0"
     inkscape:window-y="0"
     inkscape:window-maximized="0"
     inkscape:current-layer="layer1" />
  <g
     id="layer1">
    <rect
       id="rect8727"
       style="fill:#50afdc"
       height="1200"
       width="1600"
       y="0"
       x="0" />
    <path
       id="path8729"
       style="fill:#ffffff"
       d="m-30.661-192.68c-22.558 0-41.252 16.67-44.431 38.35-0.795-0.07-1.595-0.12-2.408-0.12-15.521 0-28.16 13.18-28.51 29.55-2.59-1.45-5.57-2.28-8.75-2.28-9.93 0-18.01 8.07-18.01 18.01 0 9.931 10.17 20.824 20.1 20.824 84.209 0.271 140.16 1.112 224.07 0.564 11.3 0 21.63-5.357 21.63-16.658 0-11.29-9.17-20.46-20.47-20.46-2.94 0-5.74 0.62-8.27 1.74-4.587-7.59-12.91-12.67-22.423-12.67-3.746 0-7.315 0.79-10.538 2.21-1.796-11.52-11.768-20.36-23.795-20.36-9.495 0-17.71 5.5-21.633 13.49-3.508-2.08-7.517-3.41-11.794-3.77 0.09-1.16 0.142-2.32 0.142-3.51 0-24.79-20.122-44.91-44.91-44.91z" />
    <path
       id="path8731"
       style="fill:#ffffff"
       d="m25.676-39.053c-37.376 0-68.348 27.613-73.615 63.533-1.318-0.117-2.644-0.193-3.99-0.193-25.716 0-46.659 21.836-47.232 48.948-4.299-2.4-9.229-3.775-14.499-3.775-16.46 0-29.84 13.375-29.84 29.837 0 16.463 16.85 34.513 33.31 34.513 139.51 0.45 232.21 1.84 371.24 0.93 18.71 0 35.83-8.87 35.83-27.59 0-18.721-15.19-33.915-33.91-33.915-4.88 0-9.51 1.037-13.7 2.896-7.6-12.582-21.39-20.999-37.15-20.999-6.21 0-12.12 1.317-17.46 3.668-2.98-19.098-19.5-33.74-39.43-33.74-15.73 0-29.34 9.114-35.84 22.35-5.81-3.44-12.46-5.647-19.542-6.242 0.15-1.923 0.232-3.851 0.232-5.813 0-41.069-33.335-74.408-74.404-74.408z" />
    <path
       id="path8733"
       style="fill:#ffffff;stroke-width:0.692749"
       d="m 133.11617,202.54734 c -26.85305,0 -49.104156,19.84034 -52.887953,45.64526 -0.946989,-0.0831 -1.899519,-0.13855 -2.866597,-0.13855 -18.475627,0 -33.521451,15.69077 -33.932944,35.17088 -3.086891,-1.72494 -6.633075,-2.71557 -10.417565,-2.71557 -11.825925,0 -21.435052,9.60843 -21.435052,21.43366 0,11.82523 12.100254,24.7935 23.926871,24.7935 100.23391,0.32559 166.82791,1.32315 266.71544,0.67197 13.44627,0 25.74257,-6.3733 25.74257,-19.82649 0,-13.44626 -10.9108,-24.35707 -24.364,-24.35707 -3.50531,0 -6.8305,0.74124 -9.84396,2.07825 -5.45887,-9.04038 -15.36519,-15.08808 -26.69164,-15.08808 -4.45438,0 -8.70786,0.94907 -12.54569,2.63245 -2.13367,-13.71644 -14.00739,-24.2393 -28.31959,-24.2393 -11.30567,0 -21.08037,6.55341 -25.7495,16.05793 -4.17728,-2.47312 -8.95032,-4.05259 -14.04203,-4.48209 0.11084,-1.3855 0.17319,-2.76407 0.17319,-4.17728 0,-29.5042 -23.95528,-53.45947 -53.45947,-53.45947 z" />
    <path
       id="path8737"
       style="fill:#ffffff"
       d="m-0.16726 544.21c-30.87 0-56.45 22.8-60.801 52.47-1.088-0.09-2.183-0.16-3.295-0.16-21.239 0-38.537 18.04-39.007 40.43-3.55-1.98-7.63-3.12-11.98-3.12-13.59 0-24.64 11.05-24.64 24.64 0 13.6 13.91 28.51 27.51 28.51 115.22 0.37 191.78 1.52 306.61 0.77 15.46 0 29.6-7.33 29.6-22.79s-12.55-28.01-28.01-28.01c-4.03 0-7.85 0.86-11.32 2.39-6.27-10.39-17.66-17.34-30.68-17.34-5.13 0-10.01 1.09-14.42 3.03-2.46-15.78-16.11-27.87-32.56-27.87-12.997 0-24.239 7.53-29.607 18.46-4.801-2.84-10.286-4.66-16.139-5.15 0.123-1.59 0.195-3.19 0.195-4.81 0-33.92-27.536-61.45-61.456-61.45z" />
    <path
       id="path8739"
       style="fill:#ffffff"
       d="m 390.29577,849.25839 c -21.65,0 -39.59,15.99 -42.64,36.8 -0.76,-0.07 -1.53,-0.11 -2.31,-0.11 -14.9,0 -27.03,12.65 -27.36,28.35 -2.49,-1.39 -5.35,-2.19 -8.4,-2.19 -9.53,0 -17.28,7.75 -17.28,17.29 0,9.53 9.75,19.99 19.29,19.99 80.81,0.26 134.51,1.07 215.04,0.54 10.85,0 20.76,-5.14 20.76,-15.98 0,-10.85 -8.8,-19.65 -19.64,-19.65 -2.83,0 -5.51,0.6 -7.94,1.68 -4.4,-7.29 -12.39,-12.16 -21.52,-12.16 -3.59,0 -7.02,0.76 -10.11,2.12 -1.73,-11.06 -11.3,-19.54 -22.84,-19.54 -9.11,0 -17,5.28 -20.76,12.94 -3.37,-1.99 -7.22,-3.27 -11.32,-3.61 0.09,-1.12 0.14,-2.23 0.14,-3.37 0,-23.79 -19.32,-43.1 -43.11,-43.1 z" />
    <path
       id="path8741"
       style="fill:#ffffff"
       d="m 267.14417,973.07626 c -9.66,0 -17.66,7.14 -19.02,16.42 -0.34,-0.03 -0.68,-0.05 -1.03,-0.05 -6.65,0 -12.06,5.64 -12.21,12.65004 -1.11,-0.62 -2.38,-0.98 -3.74,-0.98 -4.26,0 -7.71,3.46 -7.71,7.71 0,4.26 4.35,8.92 8.6,8.92 36.05,0.12 60.01,0.48 95.93,0.24 4.84,0 9.26,-2.29 9.26,-7.13 0,-4.83 -3.92,-8.76 -8.76,-8.76 -1.26,0 -2.46,0.27 -3.54,0.75 -1.97,-3.25003 -5.53,-5.43003 -9.6,-5.43003 -1.61,0 -3.13,0.34 -4.51,0.95 -0.77,-4.94001 -5.04,-8.72001 -10.19,-8.72001 -4.07,0 -7.58,2.36 -9.26,5.78 -1.5,-0.89 -3.22,-1.46 -5.05,-1.62 0.04,-0.49 0.06,-0.99 0.06,-1.5 0,-10.61 -8.62,-19.23 -19.23,-19.23 z" />
    <path
       id="path8745"
       style="fill:#ffffff"
       d="m91.439 1206.5c-38.979 0-71.28 28.8-76.773 66.2-1.374-0.1-2.757-0.2-4.161-0.2-26.819 0-48.661 22.8-49.258 51.1-4.481-2.5-9.629-4-15.122-4-17.168 0-31.117 14-31.117 31.1 0 17.2 17.566 36 34.733 36 145.5 0.5 242.17 2 387.17 1 19.52 0 37.37-9.2 37.37-28.8 0-19.5-15.84-35.3-35.36-35.3-5.09 0-9.92 1-14.3 3-7.92-13.1-22.31-21.9-38.74-21.9-6.47 0-12.64 1.4-18.21 3.8-3.1-19.9-20.33-35.2-41.12-35.2-16.4 0-30.6 9.5-37.38 23.3-6.06-3.6-12.99-5.9-20.38-6.5 0.16-2 0.25-4 0.25-6 0-42.9-34.77-77.6-77.601-77.6z" />
    <path
       id="path8747"
       style="fill:#ffffff"
       d="m399.7-445.31c47.78 0 87.37 35.3 94.1 81.22 1.69-0.15 3.38-0.25 5.1-0.25 32.88 0 59.65 27.92 60.38 62.57 5.49-3.07 11.8-4.82 18.53-4.82 21.05 0 38.14 17.09 38.14 38.14 0 21.04-21.53 44.11-42.57 44.11-178.34 0.58-296.83 2.36-474.55 1.2-23.929 0-45.814-11.35-45.814-35.28s19.422-43.35 43.349-43.35c6.235 0 12.155 1.33 17.525 3.7 9.71-16.08 27.34-26.84 47.49-26.84 7.93 0 15.49 1.68 22.31 4.69 3.81-24.41 24.93-43.13 50.4-43.13 20.11 0 37.51 11.65 45.82 28.57 7.43-4.4 15.92-7.22 24.98-7.98-0.19-2.46-0.31-4.92-0.31-7.43 0-52.5 42.62-95.12 95.12-95.12z" />
    <path
       id="path8749"
       style="fill:#ffffff"
       d="m585.43-216.56c38.91 0 71.15 28.75 76.63 66.14 1.37-0.12 2.76-0.2 4.16-0.2 26.77 0 48.57 22.73 49.17 50.958 4.47-2.498 9.61-3.928 15.09-3.928 17.14 0 31.06 13.922 31.06 31.059s-17.53 35.927-34.67 35.927c-145.24 0.468-241.74 1.917-386.48 0.973-19.48 0-37.31-9.241-37.31-28.727s15.82-35.304 35.31-35.304c5.08 0 9.9 1.08 14.27 3.015 7.91-13.103 22.26-21.863 38.67-21.863 6.46 0 12.62 1.37 18.18 3.82 3.1-19.88 20.3-35.13 41.04-35.13 16.38 0 30.55 9.49 37.32 23.27 6.05-3.58 12.96-5.88 20.34-6.5-0.16-2-0.25-4-0.25-6.05 0-42.75 34.71-77.46 77.47-77.46z" />
    <path
       id="path8753"
       style="fill:#ffffff;stroke-width:0.999998"
       d="m 381.31008,478.76323 c 12.7,0 23.21,9.37 25,21.57 0.45,-0.04 0.9,-0.06 1.36,-0.06 8.73,0 15.84,7.41 16.04,16.62 1.46,-0.82 3.13,-1.28 4.92,-1.28 5.59,0 10.14,4.54 10.14,10.13 0,5.59 -5.72,11.72 -11.32,11.72 -47.38,0.15 -78.86,0.63 -126.07,0.32 -6.36,0 -12.17,-3.02 -12.17,-9.37 0,-6.36 5.16,-11.52 11.51,-11.52 1.66,0 3.23,0.35 4.66,0.98 2.58,-4.27 7.26,-7.13 12.62,-7.13 2.1,0 4.11,0.45 5.93,1.25 1.01,-6.49 6.62,-11.46 13.38,-11.46 5.35,0 9.97,3.09 12.18,7.59 1.97,-1.17 4.23,-1.92 6.63,-2.12 -0.05,-0.65 -0.08,-1.31 -0.08,-1.97 0,-13.95 11.32,-25.27 25.27,-25.27 z" />
    <path
       id="path8759"
       style="fill:#ffffff"
       d="m 1014.2012,155.51115 c 12.9,0 23.59,9.6 25.41,22 0.45,-0.1 0.91,-0.1 1.37,-0.1 8.88,0 16.1,7.5 16.3,16.9 1.48,-0.8 3.19,-1.3 5,-1.3 5.68,0 10.3,4.6 10.3,10.3 0,5.7 -5.81,11.9 -11.49,11.9 -48.15,0.2 -80.13001,0.6 -128.11001,0.3 -6.46,0 -12.37,-3 -12.37,-9.5 0,-6.5 5.25,-11.7 11.71,-11.7 1.68,0 3.28,0.4 4.73,1 2.62,-4.3 7.38,-7.3 12.82,-7.3 2.14,0 4.18,0.5 6.02,1.3 1.03,-6.6 6.73,-11.6 13.61,-11.6 5.42,0 10.12,3.1 12.36,7.7 2.01,-1.2 4.3,-2 6.75,-2.2 -0.05,-0.6 -0.08,-1.3 -0.08,-2 0,-14.1 11.50001,-25.7 25.67001,-25.7 z" />
    <path
       id="path8763"
       style="fill:#ffffff"
       d="m701.46 1350.2c39.88 0 72.93 29.4 78.55 67.8 1.41-0.2 2.82-0.2 4.26-0.2 27.44 0 49.79 23.3 50.4 52.2 4.59-2.6 9.86-4 15.48-4 17.56 0 31.84 14.2 31.84 31.8s-17.98 36.8-35.54 36.8c-148.88 0.5-247.8 2-396.17 1-19.97 0-38.24-9.4-38.24-29.4s16.21-36.2 36.19-36.2c5.2 0 10.15 1.1 14.62 3.1 8.11-13.4 22.83-22.4 39.65-22.4 6.62 0 12.93 1.4 18.63 3.9 3.17-20.4 20.81-36 42.07-36 16.79 0 31.31 9.7 38.25 23.8 6.2-3.6 13.29-6 20.85-6.6-0.16-2.1-0.25-4.1-0.25-6.2 0-43.9 35.58-79.4 79.41-79.4z" />
    <path
       id="path8765"
       style="fill:#ffffff"
       d="m638.6-653.51c-43.37 0-79.3 32.04-85.41 73.72-1.53-0.13-3.07-0.22-4.63-0.22-29.84 0-54.14 25.33-54.8 56.79-4.99-2.78-10.72-4.38-16.83-4.38-19.1 0-34.62 15.52-34.62 34.62s19.55 40.04 38.65 40.04c161.87 0.52 269.42 2.14 430.74 1.09 21.71 0 41.58-10.3 41.58-32.02s-17.63-39.35-39.35-39.35c-5.66 0-11.04 1.2-15.9 3.36-8.82-14.6-24.82-24.36-43.11-24.36-7.2 0-14.06 1.52-20.26 4.25-3.45-22.16-22.62-39.15-45.74-39.15-18.25 0-34.04 10.58-41.59 25.94-6.74-4-14.45-6.56-22.67-7.25 0.18-2.23 0.28-4.46 0.28-6.74 0-47.65-38.69-86.34-86.34-86.34z" />
    <path
       id="path8767"
       style="fill:#ffffff"
       d="m774.87-311.21c-11.34 0-20.74 8.38-22.34 19.28-0.4-0.04-0.8-0.06-1.21-0.06-7.8 0-14.16 6.62-14.33 14.85-1.31-0.73-2.81-1.14-4.4-1.14-5 0-9.06 4.06-9.06 9.05 0 5 5.11 10.47 10.11 10.47 42.34 0.14 70.47 0.56 112.66 0.29 5.68 0 10.87-2.7 10.87-8.38s-4.61-10.29-10.29-10.29c-1.48 0-2.88 0.32-4.16 0.88-2.3-3.82-6.49-6.37-11.27-6.37-1.88 0-3.68 0.4-5.3 1.11-0.9-5.79-5.92-10.24-11.96-10.24-4.78 0-8.91 2.77-10.88 6.79-1.76-1.05-3.78-1.72-5.93-1.9 0.05-0.58 0.07-1.17 0.07-1.76 0-12.47-10.12-22.58-22.58-22.58z" />
    <path
       id="path8771"
       style="fill:#ffffff;stroke-width:0.637433"
       d="m 585.38066,198.38271 c -16.12069,0 -29.47491,11.90725 -31.75055,27.39688 -0.56732,-0.0446 -1.14101,-0.0829 -1.72107,-0.0829 -11.09134,0 -20.12377,9.42126 -20.37237,21.11179 -1.84856,-1.03264 -3.97758,-1.62546 -6.25322,-1.62546 -7.10101,0 -12.86978,5.76877 -12.86978,12.86978 0,7.10101 7.26674,14.88407 14.36775,14.88407 60.1737,0.19123 100.15352,0.79042 160.11687,0.40158 8.06991,0 15.45776,-3.83097 15.45776,-11.90088 0,-8.07628 -6.55282,-14.62909 -14.6291,-14.62909 -2.10353,0 -4.09869,0.45258 -5.909,1.24937 -3.27641,-5.42456 -9.23004,-9.05793 -16.02508,-9.05793 -2.67722,0 -5.22695,0.57369 -7.52808,1.58721 -1.28762,-8.24201 -8.41412,-14.5526 -17.00672,-14.5526 -6.78229,0 -12.65306,3.92659 -15.45776,9.63799 -2.50511,-1.48522 -5.37356,-2.435 -8.42687,-2.68997 0.0637,-0.83504 0.10199,-1.6637 0.10199,-2.51149 0,-17.71427 -14.3805,-32.08839 -32.09477,-32.08839 z" />
    <path
       id="path8781"
       style="fill:#ffffff"
       d="m841.51 1696.6c-36.23 0-66.25 26.8-71.36 61.6-1.28-0.1-2.56-0.1-3.87-0.1-24.93 0-45.23 21.1-45.78 47.4-4.17-2.3-8.95-3.7-14.06-3.7-15.96 0-28.92 13-28.92 29 0 15.9 16.32 33.4 32.28 33.4 135.25 0.5 225.11 1.8 359.9 0.9 18.1 0 34.7-8.6 34.7-26.7 0-18.2-14.7-32.9-32.8-32.9-4.8 0-9.3 1-13.3 2.8-7.4-12.2-20.8-20.3-36-20.3-6.1 0-11.8 1.2-17 3.5-2.9-18.5-18.88-32.7-38.19-32.7-15.25 0-28.45 8.8-34.75 21.7-5.63-3.4-12.07-5.5-18.94-6.1 0.14-1.8 0.23-3.7 0.23-5.6 0-39.8-32.32-72.2-72.14-72.2z" />
    <path
       id="path8783"
       style="fill:#ffffff"
       d="m1053.4-481.83c13 0 23.7 9.56 25.5 22 0.5-0.04 0.9-0.06 1.4-0.06 8.9 0 16.1 7.56 16.3 16.95 1.5-0.83 3.2-1.31 5.1-1.31 5.7 0 10.3 4.63 10.3 10.33 0 5.71-5.8 11.96-11.5 11.96-48.4 0.15-80.5 0.64-128.61 0.32-6.48 0-12.41-3.07-12.41-9.56 0-6.48 5.26-11.74 11.74-11.74 1.69 0 3.3 0.36 4.75 1 2.63-4.36 7.41-7.27 12.87-7.27 2.15 0 4.2 0.46 6.05 1.27 1.03-6.62 6.71-11.69 13.61-11.69 5.5 0 10.2 3.16 12.5 7.74 2-1.19 4.3-1.95 6.7-2.16 0-0.66-0.1-1.33-0.1-2.01 0-14.22 11.6-25.77 25.8-25.77z" />
    <path
       id="path8785"
       style="fill:#ffffff"
       d="m1231-366.73c46.2 0 84.5 34.13 91 78.52 1.6-0.14 3.3-0.23 4.9-0.23 31.8 0 57.7 26.98 58.4 60.49 5.3-2.96 11.4-4.66 17.9-4.66 20.4 0 36.9 16.53 36.9 36.87 0 20.35-20.8 42.65-41.2 42.65-172.4 0.56-287 2.28-458.79 1.16-23.13 0-44.29-10.97-44.29-34.11 0-23.13 18.77-41.91 41.91-41.91 6.03 0 11.75 1.28 16.94 3.58 9.39-15.55 26.43-25.95 45.93-25.95 7.7 0 15 1.63 21.6 4.53 3.6-23.6 24.1-41.7 48.7-41.7 19.4 0 36.3 11.27 44.3 27.62 7.2-4.25 15.4-6.98 24.1-7.71-0.2-2.38-0.3-4.76-0.3-7.18 0-50.76 41.2-91.97 92-91.97z" />
    <path
       id="path8787"
       style="fill:#ffffff;stroke-width:0.822945"
       d="m 1264.3587,-72.280378 c 30.449,0 55.6311,22.488606 59.9104,51.74264 1.0698,-0.09505 2.1396,-0.156853 3.2917,-0.156853 20.9028,0 37.9378,17.783832 38.4316,39.864258 3.5386,-1.954494 7.4888,-3.074521 11.8504,-3.074521 13.3317,0 24.2768,10.893317 24.2768,24.299907 0,13.406591 -13.7432,28.106027 -27.1571,28.106027 -113.5664,0.365387 -189.1127,1.500228 -302.3499,0.759577 -15.2245,0 -29.1322,-7.227922 -29.1322,-22.472147 0,-15.244226 12.3441,-27.618843 27.5686,-27.618843 4.0324,0 7.7357,0.845164 11.1921,2.358559 6.1721,-10.247306 17.4464,-17.102434 30.2843,-17.102434 5.02,0 9.7931,1.07312 14.1547,2.987289 2.4688,-15.5536529 15.8828,-27.47812 32.1771,-27.47812 12.7556,-3.29e-4 23.8654,7.42296 29.1322,18.202711 4.7731,-2.802126 10.1223,-4.5997661 15.9652,-5.0838221 -0.1646,-1.5663927 -0.2469,-3.1367359 -0.2469,-4.7340709 0,-33.447759 27.1572,-60.599993 60.651,-60.599993 z" />
    <path
       id="path8791"
       style="fill:#ffffff"
       d="m 1358.2316,382.9758 c 29,0 53,21.41 57.1,49.25 1,-0.09 2,-0.15 3.1,-0.15 19.9,0 36.2,16.93 36.6,37.94 3.3,-1.86 7.2,-2.93 11.2,-2.93 12.8,0 23.2,10.37 23.2,23.13 0,12.76 -13.1,26.75 -25.9,26.75 -108.1,0.35 -179.9,1.43 -287.7,0.73 -14.5,0 -27.8,-6.88 -27.8,-21.39 0,-14.51 11.8,-26.29 26.3,-26.29 3.8,0 7.4,0.8 10.6,2.25 5.9,-9.76 16.6,-16.28 28.8,-16.28 4.8,0 9.4,1.02 13.5,2.84 2.4,-14.8 15.2,-26.15 30.6,-26.15 12.2,0 22.8,7.06 27.8,17.32 4.5,-2.66 9.6,-4.37 15.1,-4.84 -0.1,-1.49 -0.1,-2.98 -0.1,-4.5 0,-31.84 25.8,-57.68 57.6,-57.68 z" />
    <path
       id="path8793"
       style="fill:#ffffff"
       d="m 1392.9283,666.18004 c 38.9,0 71.1,28.75 76.6,66.14 1.4,-0.12 2.8,-0.2 4.2,-0.2 26.8,0 48.6,22.73 49.1,50.95 4.5,-2.5 9.7,-3.93 15.1,-3.93 17.2,0 31.1,13.92 31.1,31.06 0,17.13 -17.5,35.92 -34.7,35.92 -145.2,0.47 -241.7,1.92 -386.4,0.97 -19.49,0 -37.31,-9.24 -37.31,-28.72 0,-19.48 15.82,-35.3 35.3,-35.3 5.08,0 9.9,1.08 14.27,3.01 7.94,-13.09 22.24,-21.86 38.64,-21.86 6.5,0 12.6,1.38 18.2,3.82 3.1,-19.88 20.3,-35.12 41,-35.12 16.4,0 30.6,9.49 37.4,23.27 6,-3.58 12.9,-5.88 20.3,-6.5 -0.2,-2 -0.3,-4.01 -0.3,-6.05 0,-42.75 34.8,-77.46 77.5,-77.46 z" />
    <path
       id="path8795"
       style="fill:#ffffff"
       d="m1323.4 1015.6c17.3 0 31.7 12.8 34.1 29.4 0.6 0 1.2-0.1 1.9-0.1 11.9 0 21.5 10.1 21.8 22.7 2-1.1 4.3-1.8 6.7-1.8 7.6 0 13.8 6.2 13.8 13.8s-7.8 16-15.4 16c-64.6 0.2-107.4 0.9-171.8 0.4-8.7 0-16.6-4.1-16.6-12.7 0-8.7 7.1-15.7 15.7-15.7 2.3 0 4.4 0.4 6.4 1.3 3.5-5.8 9.9-9.7 17.2-9.7 2.8 0 5.6 0.6 8 1.7 1.4-8.8 9.1-15.6 18.3-15.6 7.3 0 13.6 4.2 16.6 10.3 2.7-1.6 5.7-2.6 9-2.9-0.1-0.9-0.1-1.8-0.1-2.7 0-19 15.4-34.4 34.4-34.4z" />
    <path
       id="path8797"
       style="fill:#ffffff"
       d="m1309.2 1509c39 0 71.3 28.7 76.8 66.2 1.4-0.1 2.7-0.2 4.1-0.2 26.9 0 48.7 22.8 49.3 51 4.5-2.5 9.6-3.9 15.1-3.9 17.2 0 31.1 13.9 31.1 31.1 0 17.1-17.6 36-34.7 36-145.5 0.4-242.1 1.9-387 0.9-19.5 0-37.4-9.2-37.4-28.7s15.8-35.4 35.4-35.4c5 0 9.9 1.1 14.2 3 8-13.1 22.3-21.9 38.8-21.9 6.4 0 12.6 1.4 18.2 3.9 3.1-19.9 20.3-35.2 41.1-35.2 16.4 0 30.6 9.5 37.3 23.3 6.1-3.6 13-5.9 20.4-6.5-0.1-2-0.2-4-0.2-6.1 0-42.8 34.7-77.5 77.5-77.5z" />
    <path
       id="path8799"
       style="fill:#ffffff"
       d="m1511 1696.6c23.6 0 43.1 17.5 46.4 40.1 0.9 0 1.7-0.1 2.5-0.1 16.3 0 29.5 13.8 29.9 30.9 2.7-1.5 5.8-2.4 9.1-2.4 10.4 0 18.8 8.5 18.8 18.9s-10.6 21.7-21 21.7c-88 0.3-146.5 1.2-234.3 0.6-11.8 0-22.6-5.6-22.6-17.4s9.6-21.4 21.4-21.4c3.1 0 6 0.7 8.7 1.8 4.8-7.9 13.5-13.2 23.4-13.2 3.9 0 7.7 0.8 11 2.3 1.9-12 12.3-21.3 24.9-21.3 9.9 0 18.5 5.8 22.6 14.1 3.7-2.2 7.9-3.5 12.4-3.9-0.1-1.2-0.2-2.5-0.2-3.7 0-25.9 21.1-47 47-47z" />
    <path
       id="path8801"
       style="fill:#ffffff"
       d="m1437.5-561.99c-38.6 0-70.5 28.44-75.9 65.45-1.3-0.12-2.7-0.2-4.1-0.2-26.5 0-48.1 22.5-48.7 50.43-4.4-2.47-9.5-3.89-14.9-3.89-17 0-30.7 13.78-30.7 30.74s17.3 35.55 34.3 35.56c143.7 0.46 239.2 1.89 382.4 0.96 19.3 0 37-9.15 37-28.43 0-19.29-15.7-34.94-35-34.94-5 0-9.8 1.07-14.1 2.98-7.8-12.96-22-21.63-38.3-21.63-6.4 0-12.5 1.36-18 3.78-3-19.68-20-34.76-40.6-34.76-16.2 0-30.2 9.39-36.9 23.02-6-3.54-12.8-5.81-20.1-6.43 0.1-1.98 0.2-3.96 0.2-5.98 0-42.32-34.3-76.66-76.6-76.66z" />
    <path
       id="path8803"
       style="fill:#ffffff"
       d="m1634.7-226.08c-41.5 0-75.9 30.65-81.7 70.53-1.5-0.13-3-0.22-4.5-0.22-28.5 0-51.8 24.24-52.4 54.34-4.8-2.66-10.2-4.19-16.1-4.19-18.3 0-33.1 14.85-33.1 33.124s18.7 38.311 37 38.311c154.8 0.499 257.7 2.045 412.1 1.038 20.8 0 39.8-9.854 39.8-30.634 0-20.779-16.9-37.649-37.7-37.649-5.4 0-10.5 1.15-15.2 3.217-8.4-13.967-23.7-23.307-41.2-23.307-6.9 0-13.5 1.46-19.4 4.07-3.3-21.2-21.7-37.46-43.8-37.46-17.4 0-32.6 10.12-39.8 24.81-6.4-3.82-13.8-6.27-21.7-6.93 0.2-2.13 0.3-4.27 0.3-6.45 0-45.59-37-82.6-82.6-82.6z" />
    <path
       id="path8805"
       style="fill:#ffffff"
       d="m1441.1 143.65c-22.9 0-41.9 16.91-45.1 38.91-0.8-0.07-1.6-0.12-2.4-0.12-15.8 0-28.6 13.37-29 29.98-2.6-1.47-5.6-2.32-8.8-2.32-10.1 0-18.3 8.19-18.3 18.28 0 10.08 10.3 21.13 20.4 21.13 85.4 0.28 142.2 1.13 227.3 0.57 11.5 0 22-5.43 22-16.9 0-11.46-9.3-20.76-20.8-20.76-3 0-5.8 0.63-8.4 1.77-4.6-7.71-13.1-12.86-22.7-12.86-3.8 0-7.5 0.81-10.7 2.25-1.8-11.7-12-20.67-24.2-20.67-9.6 0-17.9 5.58-21.9 13.69-3.6-2.11-7.6-3.46-12-3.82 0.1-1.18 0.2-2.36 0.2-3.56 0-25.15-20.5-45.57-45.6-45.57z" />
    <path
       id="path8817"
       style="fill:#ffffff"
       d="m1711.9 1404.2c-26.4 0-48.2 19.5-51.9 44.8-1-0.1-1.9-0.2-2.8-0.2-18.2 0-32.9 15.4-33.3 34.5-3.1-1.7-6.5-2.6-10.2-2.6-11.7 0-21.1 9.4-21.1 21s11.9 24.3 23.5 24.3c98.3 0.3 163.6 1.3 261.6 0.7 13.2 0 25.3-6.3 25.3-19.5s-10.7-23.9-23.9-23.9c-3.4 0-6.7 0.8-9.7 2.1-5.3-8.9-15-14.8-26.2-14.8-4.3 0-8.5 0.9-12.3 2.6-2.1-13.5-13.7-23.8-27.7-23.8-11.1 0-20.7 6.4-25.3 15.7-4.1-2.4-8.8-3.9-13.8-4.4 0.1-1.3 0.2-2.7 0.2-4.1 0-28.9-23.5-52.4-52.4-52.4z" />
    <path
       id="path8819"
       style="fill:#ffffff"
       d="m1662.5 1812.7c-35.7 0-65.2 26.3-70.2 60.6-1.3-0.1-2.5-0.2-3.8-0.2-24.5 0-44.5 20.8-45 46.6-4.1-2.2-8.8-3.6-13.8-3.6-15.7 0-28.5 12.8-28.5 28.5s16.1 32.9 31.8 32.9c132.9 0.4 221.3 1.7 353.8 0.9 17.8 0 34.2-8.5 34.2-26.3 0-17.9-14.5-32.4-32.4-32.4-4.6 0-9 1-13 2.8-7.3-12-20.4-20-35.4-20-5.9 0-11.6 1.2-16.7 3.5-2.8-18.2-18.6-32.2-37.5-32.2-15 0-28 8.7-34.2 21.3-5.6-3.2-11.9-5.4-18.6-5.9 0.1-1.9 0.2-3.7 0.2-5.6 0-39.1-31.8-70.9-70.9-70.9z" />
    <path
       d="m 743.62978,-50.357086 c 12.9,0 23.59,9.6 25.41,22 0.45,-0.1 0.91,-0.1 1.37,-0.1 8.88,0 16.1,7.5 16.3,16.9 1.48,-0.8 3.19,-1.3 5,-1.3 5.68,0 10.3,4.5999997 10.3,10.2999997 0,5.7000003 -5.81,11.9000003 -11.49,11.9000003 -48.15,0.2 -80.13,0.6 -128.11,0.3 -6.46,0 -12.37,-3 -12.37,-9.5000003 0,-6.5 5.25,-11.6999997 11.71,-11.6999997 1.68,0 3.28,0.4 4.73,1 2.62,-4.3 7.38,-7.3 12.82,-7.3 2.14,0 4.18,0.5 6.02,1.3 1.03,-6.6 6.73,-11.6 13.61,-11.6 5.42,0 10.12,3.1 12.36,7.7 2.01,-1.2 4.3,-2 6.75,-2.2 -0.05,-0.6 -0.08,-1.3 -0.08,-2 0,-14.1 11.5,-25.7 25.67,-25.7 z"
       style="fill:#ffffff"
       id="path8759-8" />
  </g>
  <metadata
     id="metadata50">
    <rdf:RDF>
      <cc:Work>
        <dc:format>image/svg+xml</dc:format>
        <dc:type
           rdf:resource="http://purl.org/dc/dcmitype/StillImage" />
        <cc:license
           rdf:resource="http://creativecommons.org/licenses/publicdomain/" />
        <dc:publisher>
          <cc:Agent
             rdf:about="http://openclipart.org/">
            <dc:title>Openclipart</dc:title>
          </cc:Agent>
        </dc:publisher>
        <dc:title>Simple Clouds</dc:title>
        <dc:date>2007-04-27T06:55:52</dc:date>
        <dc:description>A simple cloud pattern made with the Clone Tile feature of Inkscape then unclumped and arranged nicely.
\n
\nSuitable for a wallpaper or background for another drawing</dc:description>
        <dc:source>https://openclipart.org/detail/4112/simple-clouds-by-clue</dc:source>
        <dc:creator>
          <cc:Agent>
            <dc:title>Clue</dc:title>
          </cc:Agent>
        </dc:creator>
        <dc:subject>
          <rdf:Bag>
            <rdf:li>blue</rdf:li>
            <rdf:li>clouds</rdf:li>
            <rdf:li>pattern</rdf:li>
            <rdf:li>simple</rdf:li>
            <rdf:li>sky</rdf:li>
            <rdf:li>wallpaper</rdf:li>
          </rdf:Bag>
        </dc:subject>
      </cc:Work>
      <cc:License
         rdf:about="http://creativecommons.org/licenses/publicdomain/">
        <cc:permits
           rdf:resource="http://creativecommons.org/ns#Reproduction" />
        <cc:permits
           rdf:resource="http://creativecommons.org/ns#Distribution" />
        <cc:permits
           rdf:resource="http://creativecommons.org/ns#DerivativeWorks" />
      </cc:License>
    </rdf:RDF>
  </metadata>
</svg>
